<?xml version="1.0" encoding="UTF-8"?>
<svg id="Layer_2" data-name="Layer 2" xmlns="http://www.w3.org/2000/svg" viewBox="0 0 159.96 160.35">
  <defs>
    <style>
      .cls-1 {
        font-family: MyriadPro-Semibold, 'Myriad Pro';
        font-size: 6.26px;
        font-weight: 600;
      }

      .cls-2 {
        stroke-width: 1.53px;
      }

      .cls-2, .cls-3, .cls-4, .cls-5, .cls-6, .cls-7, .cls-8, .cls-9, .cls-10, .cls-11, .cls-12 {
        fill: none;
      }

      .cls-2, .cls-3, .cls-6, .cls-7, .cls-8, .cls-9, .cls-13, .cls-11, .cls-14 {
        stroke: #000;
      }

      .cls-2, .cls-4, .cls-5, .cls-7, .cls-13, .cls-10, .cls-11 {
        stroke-miterlimit: 10;
      }

      .cls-3, .cls-6, .cls-8, .cls-9, .cls-14, .cls-12 {
        stroke-linecap: round;
        stroke-linejoin: round;
      }

      .cls-4, .cls-5 {
        stroke: #040404;
      }

      .cls-4, .cls-14, .cls-12 {
        stroke-width: 1.5px;
      }

      .cls-5 {
        stroke-width: 1.3px;
      }

      .cls-15, .cls-14 {
        fill: #fff;
      }

      .cls-16 {
        fill: #a0bee0;
      }

      .cls-17 {
        fill: #070406;
      }

      .cls-6 {
        stroke-width: 1.8px;
      }

      .cls-7 {
        stroke-width: 1.25px;
      }

      .cls-8 {
        stroke-width: .77px;
      }

      .cls-9 {
        stroke-width: 1.56px;
      }

      .cls-13 {
        stroke-width: .5px;
      }

      .cls-10 {
        stroke: #201d1d;
        stroke-width: 2px;
      }

      .cls-11 {
        stroke-width: 1.2px;
      }

      .cls-12 {
        stroke: #111010;
      }
    </style>
  </defs>
  <g id="Layer_1-2" data-name="Layer 1">
    <g>
      <path d="M74.26,6.71c0,.94,.01,1.88,0,2.82,0,.18,.04,.31,.18,.44,.46,.47,.49,1.14,.08,1.66-.1,.12-.13,.23-.1,.38,.13,.59,.24,1.17,.36,1.77,.14,.69-.29,1.22-.98,1.22-.12,.01-.24,0-.36,.01-.77,.07-1.23-.64-1.05-1.3,.15-.56,.24-1.13,.36-1.7,.02-.13,.01-.24-.08-.35-.45-.57-.43-1.18,.08-1.7,.09-.1,.13-.19,.13-.32v-3.55"/>
      <path class="cls-7" d="M92,12.8c0,.48-.02,.96,0,1.44,.04,.72-.29,1.28-.85,1.74-.79,.65-1.75,1.01-2.75,1.28-1.54,.42-3.12,.55-4.72,.5-1.72-.05-3.41-.3-4.99-.98-.7-.3-1.35-.67-1.82-1.27-.26-.33-.4-.7-.39-1.11,0-1.1,0-2.21,0-3.31,0-.32,.03-.33,.34-.21,2.05,.75,4.09,1.52,6.15,2.25,.81,.29,1.68,.29,2.5,0,1.69-.59,3.37-1.22,5.05-1.84,.4-.15,.8-.29,1.19-.44,.23-.08,.27-.06,.28,.17,0,.59,0,1.19,0,1.78h0Z"/>
      <g id="kmQvjB.tif">
        <path class="cls-7" d="M95.79,5.42c0,.31-.13,.49-.47,.63-1.27,.52-2.56,1.02-3.83,1.52-2.03,.8-4.05,1.6-6.08,2.4-.79,.32-1.57,.33-2.36,0-.64-.26-1.28-.52-1.93-.77-.98-.39-1.95-.78-2.94-1.16l-.11-.04-5.2-2.13c-.07-.04-.12-.12-.18-.2v-.5c.11-.2,.27-.33,.48-.41,.61-.24,1.22-.48,1.82-.72,1.82-.71,3.63-1.44,5.44-2.15,1.1-.43,2.17-.9,3.3-1.26h.99c.93,.29,1.81,.68,2.71,1.03,1.8,.7,3.59,1.43,5.38,2.13,.83,.33,1.66,.66,2.49,.99,.29,.12,.48,.31,.47,.65Z"/>
      </g>
    </g>
    <g>
      <g>
        <path class="cls-3" d="M126.8,16.71c.6,.5,1.13,1.02,1.64,1.59v11.68c-2.64-2.99-6.51-3.2-10.53-3.54V13.05c2.66,.22,5.24,1.14,7.45,2.61"/>
        <path class="cls-3" d="M140.75,26.44c-4.03,.34-7.89,.56-10.53,3.54v-11.68c2.64-2.99,6.5-4.91,10.53-5.25v13.38Z"/>
        <path d="M129.73,32.21h-.74c-.06,0-.13-.01-.18-.04-7.02-3.46-12.44-3.45-12.51-3.45-.09-.02-.21-.04-.29-.12-.08-.08-.12-.18-.12-.28V15.04c0-.22,.18-.4,.41-.4s.41,.18,.41,.4v12.89c1.42,.06,6.27,.48,12.39,3.48h.54c6.12-3,10.97-3.42,12.39-3.48V15.04c0-.22,.18-.4,.41-.4s.41,.18,.41,.4v13.28c0,.11-.04,.21-.12,.28-.08,.08-.15,.15-.29,.12-.07-.02-5.51,0-12.51,3.45-.06,.03-.12,.04-.18,.04Z"/>
      </g>
      <g>
        <polygon points="126.11 17.47 124.46 15.63 131.31 9.34 132.95 11.18 126.11 17.47"/>
        <g>
          <polygon points="124.26 15.82 125.9 17.66 123.17 18.49 124.26 15.82"/>
          <polygon points="133.21 10.93 131.58 9.08 131.95 8.74 133.58 10.59 133.21 10.93"/>
          <path d="M132.05,8.63c.27-.25,.86-.04,1.32,.47s.6,1.13,.33,1.38"/>
        </g>
      </g>
      <path class="cls-8" d="M122.57,18.67c-.1-.16-.21-.33-.37-.42s-.38-.08-.48,.08c-.13,.2,0,.47,.12,.68,.18,.3,.35,.59,.53,.89-.69,.07-1.38,.15-2.08,.22-.2,.02-.42,.05-.55,.22-.11,.15-.13,.37-.07,.55s.18,.33,.32,.45c.34,.3,.77,.46,1.11,.77s.57,.86,.35,1.27c-.12,.22-.34,.34-.53,.48s-.39,.33-.41,.59,.26,.52,.45,.36"/>
    </g>
    <g>
      <line class="cls-6" x1="138.35" y1="52.67" x2="148.8" y2="52.67"/>
      <line class="cls-6" x1="153.09" y1="60.31" x2="159.06" y2="60.31"/>
      <line class="cls-2" x1="145.15" y1="63.29" x2="156.25" y2="50.55"/>
      <line class="cls-6" x1="143.58" y1="47.44" x2="143.58" y2="57.89"/>
    </g>
    <g id="fMeo4K.tif">
      <g>
        <path class="cls-13" d="M150.6,103.64c-.61,1.01-1.45,1.6-2.59,1.65-1.08,.05-1.94-.4-2.6-1.25-.11-.14-.27-.27-.43-.35-1.2-.59-1.84-1.53-1.85-2.88,0-.21-.06-.34-.24-.47-1.14-.82-1.45-2.25-.81-3.51,.06-.13,.05-.34-.01-.48-.51-1.07-.42-2.06,.29-3.01,.08-.11,.16-.28,.13-.4-.34-1.34,.52-2.87,1.99-3.25,.03,0,.06-.04,.07-.04,0-.44-.08-.88,.02-1.27,.1-.36,.32-.78,.62-.98,.87-.59,1.78-1.12,2.71-1.6,.4-.2,.89-.24,1.35-.27,.53-.04,.96,.23,1.35,.66,.67-.79,1.53-.82,2.39-.49,.75,.29,1.44,.71,2.16,1.09,.12,.06,.22,.17,.34,.25,1.14,.73,1.38,1.29,1.15,2.51,.47,.3,.96,.54,1.34,.9,.68,.63,.92,1.44,.75,2.36-.04,.23,0,.4,.15,.59,.7,.91,.78,1.91,.27,2.93-.11,.21-.11,.35,0,.56,.64,1.18,.3,2.65-.8,3.44-.19,.14-.25,.27-.26,.5-.02,1.34-.66,2.29-1.86,2.86-.13,.06-.28,.15-.36,.26-1.4,1.86-3.88,1.79-5.15-.15-.03-.04-.06-.08-.12-.16Zm3.6-16.7c-.27-.13-.53-.25-.74-.35-.77-.35-2.42-.95-2.5,.43-.05,.95-.01,1.91-.01,2.87,.28-.09,.53-.2,.78-.26,.24-.06,.5-.05,.55,.26,.05,.3-.2,.34-.42,.38-.6,.12-.91,.48-.93,1.1,0,.24,0,.49,0,.73,0,3.33,0,6.67,0,10,0,1.21,.68,2.13,1.75,2.45,1.05,.31,2.06-.1,2.74-1.08,.1-.14,.25-.26,.41-.32,1.16-.47,1.75-1.41,1.6-2.64-.03-.26,.04-.42,.27-.54,.13-.06,.25-.14,.36-.23,.5-.4,.81-1.06,.78-1.71-.03-.6-.64-1-.51-1.58,.07-.32,.27-.59,.37-.89,.18-.52,.07-1.07-.22-1.53-.23-.36-.59-.7-.43-1.16,.08-.22,.09-.48,.07-.72-.09-1.07-.97-1.88-2.03-1.89-1.06-.01-1.97,.81-2.08,1.89-.02,.24-.03,.5-.36,.48-.33-.03-.29-.3-.28-.53,.07-1.14,.97-2.17,2.11-2.41,.48-.1,.58-.22,.6-.72,.03-.93-.99-1.58-1.89-2.03Zm-7.21-.04c-.15,.09-.3,.18-.44,.27-.61,.4-1.41,.89-1.43,1.71-.01,.54,.11,.69,.63,.81,1.18,.26,2.12,1.41,2.09,2.55,0,.32-.25,.52-.46,.35-.11-.09-.16-.28-.18-.43-.14-1.26-1.26-2.09-2.5-1.85-1.16,.23-1.87,1.42-1.53,2.6,.09,.3,.04,.5-.18,.72-.43,.44-.67,1.01-.59,1.63,.06,.52,.12,1.04,.16,1.56,.04,.45-.14,.73-.18,1.16-.07,.8,.39,1.57,1.08,1.96,.27,.16,.38,.32,.33,.65-.16,1.06,.49,2.11,1.49,2.54,.23,.1,.46,.28,.6,.48,.77,1.09,2.26,1.38,3.35,.63,1.1-.76,1.38-2.23,.63-3.34-.32-.48-.77-.78-1.31-.96-.21-.07-.35-.23-.23-.44,.06-.11,.28-.15,.44-.16,.12,0,.25,.06,.36,.12,.39,.25,.78,.51,1.16,.77,0-.02,.01-.06,.01-.09,0-3.83-.03-7.66-.07-11.49,0-.91,.34-2.6-1.1-2.49-.73,.06-1.47,.36-2.13,.74Z"/>
        <path d="M155.51,97.62c.07,0,.12,.01,.16,0,.26-.03,.52,0,.54,.31,.03,.32-.23,.38-.49,.39-.69,.04-1.27,.34-1.64,.91-.23,.35-.34,.79-.45,1.2-.07,.24-.09,.51-.41,.47-.32-.03-.32-.29-.3-.55,.1-1.06,.61-1.86,1.53-2.37,.25-.14,.33-.3,.31-.57-.08-1.02-.83-1.87-1.83-2.05-.14-.03-.3,0-.41-.07-.14-.08-.23-.22-.35-.34,.13-.11,.27-.33,.4-.32,.34,.01,.71,.07,1.03,.2,1.08,.44,1.69,1.26,1.86,2.42,0,.06,.01,.11,.02,.17,0,.05,.02,.11,.03,.2Z"/>
        <path d="M146.5,97.45c-.18-.05-.32-.09-.45-.13-1.19-.35-2.07-1.44-2.15-2.66-.02-.26,0-.52,.31-.56,.33-.04,.38,.22,.41,.48,.09,.95,.58,1.63,1.46,1.99,.88,.35,1.68,.16,2.38-.45,.2-.17,.4-.27,.59-.04,.19,.22,.07,.46-.14,.58-.42,.25-.85,.5-1.31,.68-.24,.1-.39,.16-.47,.44-.26,.89-1.12,1.52-2,1.54-.24,0-.48-.06-.45-.32,.02-.14,.25-.35,.4-.37,.71-.1,1.17-.46,1.42-1.19Z"/>
      </g>
    </g>
    <g id="bFspdn.tif">
      <g>
        <path d="M120.14,127.69c.31-.02,.55,.15,.75,.35,.56,.54,1.1,.58,1.81,.22,.47-.24,.7-.48,.78-1,.2-1.27,.28-1.32,1.58-1.32,.73,0,1.47,0,2.2,0,.75,.01,1.03,.23,1.06,.96,.03,.75,.27,1.21,1.07,1.45,.54,.16,.92,.21,1.32-.18,.1-.1,.23-.16,.35-.24,.52-.35,.77-.33,1.22,.12,.69,.69,1.38,1.37,2.06,2.06,.43,.43,.51,.76,.12,1.18-.63,.68-.71,1.34-.25,2.14,.15,.26,.24,.47,.59,.48,.31,0,.62,.05,.92,.09,.4,.06,.66,.29,.68,.69,.06,1.14,.07,2.28,0,3.42-.03,.41-.31,.61-.69,.69-.35,.07-.69,.14-1.04,.19-.19,.03-.31,.12-.35,.31,0,.03-.02,.06-.03,.08-.47,.88-.46,1.67,.29,2.43,.35,.36,.27,.73-.08,1.09-.72,.73-1.45,1.46-2.18,2.18-.36,.35-.74,.42-1.09,.08-.74-.72-1.47-.76-2.32-.24-.22,.14-.39,.23-.42,.51-.03,.32-.11,.64-.18,.96-.1,.47-.34,.7-.81,.71-1.03,.02-2.06,.01-3.09,0-.43,0-.71-.24-.81-.67-.07-.34-.15-.69-.2-1.04-.03-.25-.16-.37-.39-.43-.22-.06-.45-.11-.63-.24-.48-.33-.88-.22-1.27,.15-.14,.13-.32,.23-.48,.34-.35,.23-.7,.21-1-.09-.77-.75-1.52-1.51-2.27-2.27-.3-.3-.36-.7-.07-.99,.73-.74,.76-1.5,.26-2.36-.13-.23-.22-.4-.5-.43-.32-.04-.64-.11-.95-.18-.47-.1-.7-.33-.71-.82-.02-1.03-.02-2.06,0-3.09,0-.43,.23-.79,.67-.79,1.09,0,1.62-.59,1.87-1.58,.06-.23,.08-.39-.06-.58-.2-.26-.38-.53-.56-.8-.25-.36-.25-.72,.06-1.04,.75-.77,1.51-1.52,2.27-2.28,.14-.14,.32-.24,.53-.24Zm12.91,14.44c-.17-.24-.35-.53-.56-.79-.25-.33-.28-.65-.1-1.02,.29-.58,.5-1.2,.63-1.84,.1-.49,.38-.74,.88-.82,1.06-.17,1.06-.19,1.06-1.26q0-1.03-1.04-1.12c-.54-.05-.74-.2-.87-.7-.16-.65-.4-1.26-.74-1.84-.21-.35-.16-.66,.06-.99,.2-.3,.6-.58,.56-.91-.04-.35-.47-.57-.73-.84-.65-.66-.65-.66-1.4-.14-.09,.06-.19,.13-.28,.19-.27,.18-.56,.19-.84,.03-.61-.36-1.27-.62-1.96-.78-.39-.1-.59-.35-.64-.75-.03-.28-.08-.56-.12-.84-.03-.21-.14-.32-.37-.31-.45,.01-.9,0-1.35,0-.23,0-.37,.08-.4,.33-.04,.31-.11,.61-.17,.91-.07,.33-.25,.56-.59,.65-.63,.16-1.23,.42-1.8,.72-.45,.24-.83,.21-1.25-.1-.79-.58-.8-.57-1.49,.13-.25,.25-.63,.48-.69,.77-.07,.33,.33,.61,.54,.91,.24,.35,.27,.69,.05,1.06-.3,.5-.55,1.03-.66,1.6-.11,.6-.44,.86-1.01,.95-.96,.16-.95,.18-.95,1.14,0,1.09,0,1.11,1.05,1.28,.53,.08,.79,.36,.9,.86,.11,.53,.28,1.04,.58,1.49,.33,.49,.3,.91-.06,1.39-.55,.73-.53,.75,.12,1.4,.26,.26,.5,.65,.8,.72,.35,.09,.64-.34,.95-.55,.35-.23,.66-.26,1.02-.04,.47,.3,.97,.54,1.51,.63,.68,.12,.97,.49,1.07,1.15,.12,.84,.15,.83,1.02,.83,1.16,0,1.17,0,1.39-1.16,.08-.39,.28-.62,.67-.73,.38-.11,.79-.2,1.11-.41,.89-.59,1.69-.57,2.45,.2,.15,.15,.29,.12,.43-.03,.35-.37,.72-.72,1.07-1.08,.07-.07,.15-.13,.14-.3Z"/>
        <path d="M125.94,142.03c-3.02,0-5.53-2.51-5.52-5.54,.01-3,2.52-5.5,5.52-5.5,3.02,0,5.53,2.52,5.52,5.54-.01,3-2.51,5.49-5.52,5.49Zm0-1.47c2.25,0,4.04-1.78,4.04-4.01,0-2.27-1.78-4.08-4.03-4.08-2.26,0-4.06,1.79-4.06,4.05,0,2.27,1.77,4.04,4.05,4.05Z"/>
      </g>
    </g>
    <g>
      <polyline class="cls-9" points="92.78 144.03 92.78 159.58 75.35 159.58 75.35 138.65 86.08 138.65"/>
      <polygon class="cls-14" points="86.56 138.65 86.56 144.02 92.78 144.02 86.56 138.65"/>
      <rect class="cls-15" x="73.3" y="146.51" width="4.11" height="5.6"/>
      <g>
        <line class="cls-5" x1="64.44" y1="149.42" x2="74.32" y2="149.42"/>
        <polygon points="73.07 146.81 75.8 149.45 73.07 152.04 73.07 146.81"/>
      </g>
      <text class="cls-1" transform="translate(76.73 145.01)"><tspan x="0" y="0">0.2</tspan></text>
      <text class="cls-1" transform="translate(77.02 151.09)"><tspan x="0" y="0">0.895</tspan></text>
      <text class="cls-1" transform="translate(77.08 157.17)"><tspan x="0" y="0">0.401</tspan></text>
    </g>
    <g>
      <polyline class="cls-9" points="48.2 129.46 48.2 145.01 30.77 145.01 30.77 124.08 41.5 124.08"/>
      <polygon class="cls-14" points="41.98 124.08 41.98 129.46 48.2 129.46 41.98 124.08"/>
      <rect class="cls-15" x="28.71" y="131.94" width="4.11" height="5.6"/>
      <g>
        <line class="cls-5" x1="31.22" y1="134.85" x2="21.34" y2="134.85"/>
        <polygon points="22.59 132.24 19.85 134.88 22.59 137.47 22.59 132.24"/>
      </g>
      <text class="cls-1" transform="translate(32.15 130.44)"><tspan x="0" y="0">0.2</tspan></text>
      <text class="cls-1" transform="translate(32.44 136.52)"><tspan x="0" y="0">0.895</tspan></text>
      <text class="cls-1" transform="translate(32.5 142.6)"><tspan x="0" y="0">0.401</tspan></text>
    </g>
    <g>
      <path d="M26.38,96.14c-.19,0-.37-.07-.52-.21-3.81-3.72-7.91-5.6-12.19-5.52-7.08,.1-12.35,5.45-12.4,5.51-.28,.29-.75,.3-1.05,.02-.29-.28-.3-.75-.02-1.05,.23-.24,5.73-5.85,13.43-5.96,4.73-.07,9.16,1.93,13.26,5.94,.29,.29,.3,.75,.01,1.05-.14,.15-.34,.22-.53,.22Z"/>
      <path d="M13.87,102.04c-.08,0-.16,0-.23,0-7.7-.11-13.2-5.72-13.43-5.96-.28-.29-.28-.76,.02-1.05,.29-.28,.76-.28,1.05,.02,.05,.05,5.32,5.41,12.4,5.51,4.27,.03,8.39-1.8,12.19-5.52,.29-.29,.76-.28,1.05,.01,.29,.29,.28,.76-.01,1.05-4.04,3.95-8.42,5.94-13.03,5.94Z"/>
      <ellipse cx="13.27" cy="95.4" rx="5.79" ry="6.11"/>
      <ellipse class="cls-15" cx="17.21" cy="93.37" rx="2.36" ry="1.2"/>
    </g>
    <g>
      <g>
        <ellipse class="cls-15" cx="10.52" cy="63.37" rx="3.35" ry="2.68"/>
        <path class="cls-17" d="M10.52,66.9c-2.31,0-4.2-1.58-4.2-3.53s1.88-3.53,4.2-3.53,4.2,1.58,4.2,3.53-1.88,3.53-4.2,3.53Zm0-5.36c-1.36,0-2.5,.84-2.5,1.83s1.15,1.84,2.5,1.84,2.5-.84,2.5-1.84-1.14-1.83-2.5-1.83Z"/>
      </g>
      <g>
        <ellipse class="cls-15" cx="23.41" cy="63.37" rx="3.35" ry="2.68"/>
        <path class="cls-17" d="M23.41,66.9c-2.31,0-4.2-1.58-4.2-3.53s1.88-3.53,4.2-3.53,4.2,1.58,4.2,3.53-1.88,3.53-4.2,3.53Zm0-5.36c-1.36,0-2.5,.84-2.5,1.83s1.15,1.84,2.5,1.84,2.5-.84,2.5-1.84-1.15-1.83-2.5-1.83Z"/>
      </g>
      <g>
        <line class="cls-16" x1="13.86" y1="63.37" x2="13.86" y2="50.65"/>
        <path class="cls-17" d="M13.86,64.21c-.47,0-.85-.38-.85-.85v-12.72c0-.47,.38-.85,.85-.85s.85,.38,.85,.85v12.72c0,.47-.38,.85-.85,.85Z"/>
      </g>
      <g>
        <line class="cls-16" x1="26.76" y1="63.37" x2="26.76" y2="50.65"/>
        <path class="cls-17" d="M26.76,64.21c-.47,0-.85-.38-.85-.85v-12.72c0-.47,.38-.85,.85-.85s.85,.38,.85,.85v12.72c0,.47-.38,.85-.85,.85Z"/>
      </g>
      <g>
        <rect class="cls-15" x="13.86" y="48.73" width="12.89" height="4.26"/>
        <path class="cls-17" d="M26.76,53.84H13.86c-.47,0-.85-.38-.85-.85v-4.26c0-.47,.38-.85,.85-.85h12.89c.47,0,.85,.38,.85,.85v4.26c0,.47-.38,.85-.85,.85Zm-12.05-1.7h11.2v-2.57H14.71v2.57Z"/>
      </g>
    </g>
    <g>
      <line class="cls-11" x1="34.71" y1="19.35" x2="38.34" y2="19.35"/>
      <circle class="cls-4" cx="45.31" cy="19.35" r="9.91"/>
      <polyline class="cls-12" points="48.99 15.57 44.51 19.1 49.85 25.17"/>
      <line class="cls-11" x1="51.84" y1="19.35" x2="55.47" y2="19.35"/>
      <line class="cls-11" x1="45.31" y1="25.97" x2="45.31" y2="29.6"/>
      <line class="cls-11" x1="45.31" y1="9.43" x2="45.31" y2="13.06"/>
    </g>
    <polygon class="cls-10" points="32.14 59.56 31.18 93.89 50.56 121.38 83.56 132.67 115.7 123.24 136.43 95.79 137.18 61.39 117.39 33.76 84.91 22.48 52.66 32.04 32.14 59.56"/>
    <path d="M114.94,77.14c0,.9-.45,1.52-1.55,1.92-2.19,.8-4.33,1.73-6.4,2.81-4.43,2.31-8.37,5.27-11.72,8.98-3.55,3.92-6.2,8.41-8.14,13.31-.34,.85-.63,1.72-.98,2.57-.34,.81-1,1.24-1.86,1.27-.88,.03-1.6-.37-1.98-1.17-.72-1.49-1.37-3.02-2.08-4.52-1.84-3.88-3.74-7.73-6.39-11.15-1.96-2.53-4.31-4.61-7.03-6.29-3.59-2.23-7.45-3.89-11.34-5.49-.39-.16-.8-.3-1.13-.58-1.21-1.02-.99-2.9,.46-3.56,.95-.43,1.95-.74,2.91-1.14,3.38-1.38,6.58-3.1,9.56-5.22,3.75-2.67,6.94-5.9,9.59-9.65,2.31-3.26,4.1-6.8,5.5-10.54,.55-1.47,1.99-1.96,3.26-1.16,.46,.29,.69,.74,.87,1.23,1.61,4.26,3.73,8.24,6.53,11.84,3.27,4.2,7.2,7.66,11.81,10.34,2.59,1.5,5.27,2.81,8.1,3.8,.32,.11,.63,.24,.92,.39,.74,.39,1.11,1.01,1.09,2.01Z"/>
  </g>
</svg>