<?xml version="1.0" encoding="UTF-8"?>
<svg id="Layer_2" data-name="Layer 2" xmlns="http://www.w3.org/2000/svg" viewBox="0 0 159.95 160.35">
  <defs>
    <style>
      .cls-1 {
        font-family: MyriadPro-Semibold, 'Myriad Pro';
        font-size: 6.26px;
        font-weight: 600;
      }

      .cls-2 {
        stroke-width: 1.53px;
      }

      .cls-2, .cls-3, .cls-4, .cls-5, .cls-6, .cls-7, .cls-8, .cls-9, .cls-10, .cls-11, .cls-12, .cls-13, .cls-14 {
        fill: none;
      }

      .cls-2, .cls-3, .cls-5, .cls-7, .cls-8, .cls-9, .cls-10, .cls-15, .cls-13, .cls-16 {
        stroke: #000;
      }

      .cls-2, .cls-4, .cls-5, .cls-6, .cls-8, .cls-15, .cls-11, .cls-12, .cls-13 {
        stroke-miterlimit: 10;
      }

      .cls-3, .cls-7, .cls-9, .cls-10, .cls-16, .cls-14 {
        stroke-linecap: round;
        stroke-linejoin: round;
      }

      .cls-4, .cls-5, .cls-16, .cls-14 {
        stroke-width: 1.5px;
      }

      .cls-4, .cls-6 {
        stroke: #040404;
      }

      .cls-6 {
        stroke-width: 1.3px;
      }

      .cls-17 {
        fill: #ebca83;
      }

      .cls-18 {
        fill: #fff;
      }

      .cls-19, .cls-16 {
        fill: #9cca75;
      }

      .cls-20 {
        fill: #a8ccf0;
      }

      .cls-21 {
        fill: #df8786;
      }

      .cls-22 {
        fill: #201d1d;
      }

      .cls-7 {
        stroke-width: 1.8px;
      }

      .cls-8 {
        stroke-width: 1.25px;
      }

      .cls-9 {
        stroke-width: .77px;
      }

      .cls-10 {
        stroke-width: 1.56px;
      }

      .cls-15 {
        stroke-width: .5px;
      }

      .cls-11 {
        stroke-width: 2px;
      }

      .cls-11, .cls-12 {
        stroke: #201d1d;
      }

      .cls-13 {
        stroke-width: 1.2px;
      }

      .cls-14 {
        stroke: #111010;
      }
    </style>
  </defs>
  <g id="Layer_1-2" data-name="Layer 1">
    <g>
      <path class="cls-20" d="M74.51,11.62c-.1,.12-.14,.23-.1,.38,.13,.6,.24,1.18,.36,1.77,.14,.69-.29,1.22-.98,1.22-.12,.01-.24,0-.36,.01-.29,.02-.54-.07-.73-.23v-4.78s.02-.03,.04-.05c.09-.1,.13-.18,.13-.32v-3.55l1.38,.64c0,.94,0,1.87,0,2.82,0,.17,.05,.3,.18,.43,.46,.48,.49,1.14,.08,1.66Z"/>
      <path class="cls-21" d="M92,11.03v1.78c0,.48-.02,.96,0,1.44,.04,.72-.29,1.28-.85,1.74-.79,.64-1.75,1.01-2.74,1.28-1.55,.42-3.13,.55-4.73,.5-1.72-.05-3.4-.3-4.99-.98-.7-.3-1.35-.67-1.81-1.27-.26-.33-.4-.7-.4-1.11,.01-1.1,0-2.21,0-3.31,0-.32,.03-.33,.35-.21,2.05,.75,4.09,1.52,6.15,2.25,.82,.28,1.68,.29,2.5,0,1.69-.59,3.37-1.22,5.05-1.84,.4-.14,.79-.29,1.19-.44,.23-.08,.28-.06,.28,.17Z"/>
      <path class="cls-21" d="M95.79,5.41c0,.31-.14,.5-.48,.63-1.27,.51-2.55,1.02-3.82,1.52-2.03,.8-4.05,1.6-6.08,2.41-.79,.31-1.57,.32-2.36,0-.63-.27-1.28-.52-1.93-.77-.97-.4-1.95-.78-2.93-1.16l-.11-.05-5.2-2.13c-.07-.04-.12-.12-.18-.19v-.51c.11-.2,.28-.33,.49-.4,.61-.24,1.21-.49,1.82-.73,1.82-.71,3.63-1.43,5.43-2.15,1.1-.42,2.18-.9,3.31-1.26h.98c.93,.29,1.81,.68,2.71,1.03,1.8,.71,3.59,1.43,5.38,2.13,.84,.33,1.66,.66,2.49,.99,.29,.12,.49,.3,.48,.64Z"/>
      <path d="M74.77,13.78c.14,.69-.29,1.22-.98,1.22-.12,.01-.24,0-.36,.01-.29,.02-.54-.07-.73-.23-.3-.24-.43-.67-.32-1.08,.13-.5,.22-1,.32-1.51,.01-.06,.03-.13,.04-.19,.02-.1,.01-.19-.04-.28,0-.02-.02-.05-.04-.07-.44-.55-.42-1.14,.04-1.65,.01-.02,.02-.03,.04-.05,.09-.1,.13-.18,.13-.32v-3.55l1.38,.64c0,.94,0,1.87,0,2.82,0,.17,.05,.3,.18,.43,.46,.48,.49,1.14,.08,1.66-.1,.12-.14,.23-.1,.38,.13,.6,.24,1.18,.36,1.77Z"/>
      <path class="cls-8" d="M92,12.8c0,.48-.02,.96,0,1.44,.04,.72-.29,1.28-.85,1.74-.79,.64-1.75,1.01-2.74,1.28-1.55,.42-3.13,.55-4.73,.5-1.72-.05-3.4-.3-4.99-.98-.7-.3-1.35-.67-1.81-1.27-.26-.33-.4-.7-.4-1.11,.01-1.1,0-2.21,0-3.31,0-.32,.03-.33,.35-.21,2.05,.75,4.09,1.52,6.15,2.25,.82,.28,1.68,.29,2.5,0,1.69-.59,3.37-1.22,5.05-1.84,.4-.14,.79-.29,1.19-.44,.23-.08,.28-.06,.28,.17v1.78Z"/>
      <g id="kmQvjB.tif">
        <path class="cls-8" d="M95.79,5.41c0,.31-.14,.5-.48,.63-1.27,.51-2.55,1.02-3.82,1.52-2.03,.8-4.05,1.6-6.08,2.41-.79,.31-1.57,.32-2.36,0-.63-.27-1.28-.52-1.93-.77-.97-.4-1.95-.78-2.93-1.16l-.11-.05-5.2-2.13c-.07-.04-.12-.12-.18-.19v-.51c.11-.2,.28-.33,.49-.4,.61-.24,1.21-.49,1.82-.73,1.82-.71,3.63-1.43,5.43-2.15,1.1-.42,2.18-.9,3.31-1.26h.98c.93,.29,1.81,.68,2.71,1.03,1.8,.71,3.59,1.43,5.38,2.13,.84,.33,1.66,.66,2.49,.99,.29,.12,.49,.3,.48,.64Z"/>
      </g>
    </g>
    <g>
      <path class="cls-21" d="M117.91,26.45V13.05c2.43,.2,4.81,.99,6.89,2.26l6.51-5.98,1.64,1.85-6.09,5.59c.57,.48,1.09,.98,1.57,1.53v11.68c-2.64-2.99-6.5-3.2-10.52-3.54Z"/>
      <polygon class="cls-20" points="133.2 10.93 131.58 9.08 131.95 8.73 133.58 10.6 133.2 10.93"/>
      <path class="cls-20" d="M133.69,10.48l-1.65-1.84c.28-.25,.87-.04,1.32,.47,.45,.51,.6,1.12,.33,1.37Z"/>
      <path class="cls-21" d="M140.74,13.05v13.39c-4.02,.34-7.89,.55-10.53,3.54v-11.68c2.64-2.98,6.51-4.91,10.53-5.25Z"/>
      <path class="cls-20" d="M142.84,15.04v13.28c0,.11-.04,.21-.12,.29-.08,.07-.15,.15-.29,.11-.08-.01-5.51,0-12.52,3.45-.05,.03-.12,.04-.18,.04h-.74c-.06,0-.12-.01-.18-.04-7.02-3.45-12.44-3.45-12.51-3.45-.09-.01-.22-.04-.3-.11-.07-.08-.12-.18-.12-.29V15.04c0-.22,.19-.4,.41-.4s.41,.18,.41,.4v12.89c1.42,.06,6.27,.49,12.39,3.48h.54c6.13-2.99,10.98-3.42,12.39-3.48V15.04c0-.22,.18-.4,.41-.4s.41,.18,.41,.4Z"/>
      <g>
        <path class="cls-3" d="M125.36,15.67c-.18-.12-.37-.24-.56-.35-2.08-1.27-4.46-2.06-6.89-2.26v13.39c4.02,.34,7.88,.55,10.52,3.54v-11.68c-.48-.55-1-1.05-1.57-1.53-.02-.02-.05-.04-.07-.06"/>
        <path class="cls-3" d="M140.74,13.05v13.39c-4.02,.34-7.89,.55-10.53,3.54v-11.68c2.64-2.98,6.51-4.91,10.53-5.25Z"/>
        <path d="M142.84,15.04v13.28c0,.11-.04,.21-.12,.29-.08,.07-.15,.15-.29,.11-.08-.01-5.51,0-12.52,3.45-.05,.03-.12,.04-.18,.04h-.74c-.06,0-.12-.01-.18-.04-7.02-3.45-12.44-3.45-12.51-3.45-.09-.01-.22-.04-.3-.11-.07-.08-.12-.18-.12-.29V15.04c0-.22,.19-.4,.41-.4s.41,.18,.41,.4v12.89c1.42,.06,6.27,.49,12.39,3.48h.54c6.13-2.99,10.98-3.42,12.39-3.48V15.04c0-.22,.18-.4,.41-.4s.41,.18,.41,.4Z"/>
      </g>
      <g>
        <polygon points="132.95 11.18 126.86 16.78 126.1 17.48 124.46 15.64 124.8 15.32 131.31 9.34 132.95 11.18"/>
        <g>
          <polygon points="124.25 15.82 125.89 17.66 123.17 18.49 124.25 15.82"/>
          <polygon points="133.58 10.6 133.2 10.93 131.58 9.08 131.95 8.73 133.58 10.6"/>
          <path d="M133.69,10.48l-1.65-1.84c.28-.25,.87-.04,1.32,.47,.45,.51,.6,1.12,.33,1.37Z"/>
        </g>
      </g>
      <path class="cls-9" d="M122.57,18.67c-.1-.16-.21-.33-.37-.42s-.38-.08-.48,.08c-.13,.2,0,.47,.12,.68,.18,.3,.35,.59,.53,.89-.69,.07-1.38,.15-2.08,.22-.2,.02-.42,.05-.55,.22-.11,.15-.13,.37-.07,.55s.18,.33,.32,.45c.34,.3,.77,.46,1.11,.77s.57,.86,.35,1.27c-.12,.22-.34,.34-.53,.48s-.39,.33-.41,.59,.26,.52,.45,.36"/>
    </g>
    <g>
      <line class="cls-7" x1="138.35" y1="52.67" x2="148.8" y2="52.67"/>
      <line class="cls-7" x1="153.08" y1="60.31" x2="159.05" y2="60.31"/>
      <line class="cls-2" x1="145.15" y1="63.3" x2="156.25" y2="50.55"/>
      <line class="cls-7" x1="143.57" y1="47.45" x2="143.57" y2="57.9"/>
    </g>
    <g id="fMeo4K.tif">
      <path class="cls-21" d="M159.15,96.89c.63,1.19,.29,2.65-.8,3.45-.19,.13-.26,.27-.26,.5-.02,1.34-.66,2.28-1.86,2.86-.14,.06-.28,.15-.36,.26-1.41,1.86-3.88,1.79-5.15-.15-.03-.04-.06-.08-.13-.16-.6,1.02-1.44,1.6-2.59,1.65-1.08,.04-1.94-.4-2.6-1.25-.11-.15-.27-.27-.44-.35-1.2-.59-1.83-1.53-1.85-2.88,0-.21-.05-.34-.23-.47-1.14-.82-1.45-2.25-.81-3.51,.07-.13,.05-.34,0-.48-.51-1.06-.42-2.06,.29-3.01,.08-.11,.16-.28,.14-.4-.34-1.34,.52-2.87,1.99-3.24,.03-.01,.06-.04,.07-.04,0-.44-.08-.88,.02-1.27,.1-.37,.32-.78,.62-.99,.87-.59,1.78-1.12,2.72-1.59,.39-.21,.89-.24,1.34-.28,.54-.04,.97,.24,1.35,.66,.67-.79,1.53-.82,2.39-.49,.75,.29,1.44,.71,2.16,1.09,.12,.06,.22,.17,.34,.25,1.14,.73,1.38,1.29,1.15,2.51,.47,.3,.96,.54,1.34,.9,.68,.62,.92,1.44,.75,2.35-.05,.24,0,.4,.14,.59,.7,.92,.79,1.91,.27,2.94-.1,.21-.11,.35,.01,.55Z"/>
      <g>
        <path class="cls-15" d="M159.14,96.34c.52-1.03,.43-2.02-.27-2.94-.14-.19-.19-.35-.14-.59,.17-.91-.07-1.73-.75-2.35-.38-.36-.87-.6-1.34-.9,.23-1.22-.01-1.78-1.15-2.51-.12-.08-.22-.19-.34-.25-.72-.38-1.41-.8-2.16-1.09-.86-.33-1.72-.3-2.39,.49-.38-.42-.81-.7-1.35-.66-.45,.04-.95,.07-1.34,.28-.94,.47-1.85,1-2.72,1.59-.3,.21-.52,.62-.62,.99-.1,.39-.02,.83-.02,1.27-.01,0-.04,.03-.07,.04-1.47,.37-2.33,1.9-1.99,3.24,.02,.12-.06,.29-.14,.4-.71,.95-.8,1.95-.29,3.01,.06,.14,.08,.35,0,.48-.64,1.26-.33,2.69,.81,3.51,.18,.13,.23,.26,.23,.47,.02,1.35,.65,2.29,1.85,2.88,.17,.08,.33,.2,.44,.35,.66,.85,1.52,1.29,2.6,1.25,1.15-.05,1.99-.63,2.59-1.65,.07,.08,.1,.12,.13,.16,1.27,1.94,3.74,2.01,5.15,.15,.08-.11,.22-.2,.36-.26,1.2-.58,1.84-1.52,1.86-2.86,0-.23,.07-.37,.26-.5,1.09-.8,1.43-2.26,.8-3.45-.12-.2-.11-.34-.01-.55Zm-10.6,3.6c.54,.18,.99,.48,1.32,.96,.75,1.11,.47,2.59-.64,3.34-1.09,.75-2.57,.46-3.35-.63-.14-.2-.37-.38-.6-.48-1-.42-1.65-1.47-1.49-2.54,.05-.32-.06-.48-.33-.64-.68-.39-1.15-1.16-1.08-1.96,.04-.43,.22-.71,.18-1.16-.04-.52-.1-1.04-.16-1.56-.07-.62,.16-1.2,.59-1.63,.23-.23,.27-.42,.19-.72-.34-1.18,.37-2.37,1.53-2.6,1.24-.24,2.37,.6,2.5,1.85,.02,.15,.08,.35,.18,.43,.21,.17,.45-.02,.46-.35,.03-1.14-.91-2.29-2.09-2.55-.52-.11-.64-.27-.63-.8,.02-.83,.82-1.31,1.43-1.71,.14-.1,.29-.19,.44-.28,.65-.37,1.39-.68,2.12-.73,1.45-.11,1.1,1.58,1.11,2.48,.04,3.83,.07,7.66,.06,11.49,0,.04-.01,.07-.01,.09-.39-.26-.77-.52-1.16-.77-.11-.07-.25-.13-.36-.12-.16,0-.38,.05-.44,.16-.12,.2,.02,.36,.23,.43Zm9.5-.18c-.11,.09-.23,.17-.36,.23-.22,.11-.29,.28-.26,.53,.15,1.23-.44,2.18-1.6,2.64-.16,.07-.32,.19-.41,.33-.68,.98-1.69,1.38-2.74,1.08-1.07-.32-1.75-1.24-1.75-2.45-.01-3.33,0-6.67,0-10,0-.24-.01-.49,0-.73,.02-.62,.33-.98,.93-1.1,.23-.04,.47-.09,.42-.38-.04-.31-.31-.31-.54-.26-.26,.07-.51,.17-.79,.26,0-.96-.03-1.92,.02-2.87,.07-1.38,1.73-.78,2.49-.43,.22,.1,.48,.21,.75,.35,.9,.44,1.92,1.09,1.89,2.02-.02,.5-.12,.62-.6,.72-1.15,.24-2.05,1.27-2.12,2.41-.01,.23-.05,.51,.28,.53,.33,.03,.34-.23,.36-.47,.11-1.09,1.02-1.91,2.08-1.9,1.06,.02,1.94,.83,2.03,1.9,.02,.24,0,.49-.07,.72-.16,.46,.2,.79,.42,1.16,.29,.46,.4,1.01,.22,1.53-.11,.31-.3,.58-.37,.9-.13,.57,.48,.98,.5,1.57,.03,.65-.27,1.31-.78,1.71Z"/>
        <path d="M155.51,97.62c.07,0,.12,.01,.16,0,.26-.03,.52,0,.54,.31,.03,.32-.23,.38-.49,.39-.69,.04-1.27,.34-1.64,.91-.23,.35-.34,.79-.45,1.2-.07,.24-.09,.51-.41,.47-.32-.03-.32-.29-.3-.55,.1-1.06,.61-1.86,1.53-2.37,.25-.14,.33-.3,.31-.57-.08-1.02-.83-1.87-1.83-2.05-.14-.03-.3,0-.41-.07-.14-.08-.23-.22-.35-.34,.13-.11,.27-.33,.4-.32,.34,.01,.71,.07,1.03,.2,1.08,.44,1.69,1.26,1.86,2.42,0,.06,.01,.11,.02,.17,0,.05,.02,.11,.03,.2Z"/>
        <path d="M146.5,97.45c-.18-.05-.32-.09-.45-.13-1.19-.35-2.07-1.44-2.15-2.66-.02-.26,0-.52,.31-.56,.33-.04,.38,.22,.41,.48,.09,.95,.58,1.63,1.46,1.99,.88,.35,1.68,.16,2.38-.45,.2-.17,.4-.27,.59-.04,.19,.22,.07,.46-.14,.58-.42,.25-.85,.5-1.31,.68-.24,.1-.39,.16-.47,.44-.26,.89-1.12,1.52-2,1.54-.24,0-.48-.06-.45-.32,.02-.14,.25-.35,.4-.37,.71-.1,1.17-.46,1.42-1.19Z"/>
      </g>
    </g>
    <g id="bFspdn.tif">
      <path class="cls-19" d="M136.4,134.68c-.02-.4-.29-.63-.68-.69-.31-.04-.62-.09-.93-.09-.34-.01-.43-.22-.58-.48-.47-.8-.38-1.46,.24-2.14,.4-.43,.31-.75-.11-1.18-.69-.69-1.38-1.38-2.07-2.07-.45-.44-.7-.47-1.22-.11-.12,.08-.25,.14-.35,.24-.4,.39-.78,.35-1.32,.19-.79-.25-1.03-.7-1.07-1.46-.03-.73-.31-.94-1.06-.95-.73-.02-1.47-.01-2.2-.01-1.29,0-1.38,.06-1.58,1.33-.08,.51-.31,.76-.78,.99-.71,.36-1.25,.32-1.81-.22-.19-.19-.44-.36-.75-.35-.21,0-.38,.1-.52,.24-.77,.75-1.53,1.51-2.28,2.28-.3,.31-.31,.67-.06,1.04,.19,.26,.37,.53,.57,.79,.14,.19,.11,.35,.06,.58-.25,.98-.78,1.57-1.87,1.58-.44,0-.66,.36-.67,.78-.02,1.03-.02,2.06,0,3.09,.01,.49,.23,.71,.71,.82,.31,.07,.63,.14,.95,.18,.28,.03,.37,.2,.5,.43,.5,.86,.48,1.62-.26,2.36-.29,.29-.22,.69,.07,.99,.76,.77,1.51,1.53,2.28,2.28,.3,.29,.65,.31,1,.08,.17-.1,.34-.2,.49-.34,.39-.37,.79-.47,1.27-.14,.18,.12,.41,.17,.63,.23,.23,.07,.35,.19,.39,.44,.04,.35,.12,.69,.19,1.04,.1,.43,.38,.66,.81,.66,1.03,0,2.06,.02,3.09,0,.48-.01,.71-.24,.82-.71,.06-.31,.14-.63,.17-.95,.03-.28,.2-.38,.42-.51,.85-.53,1.58-.48,2.32,.23,.35,.35,.74,.28,1.09-.07,.74-.72,1.47-1.45,2.19-2.19,.35-.36,.43-.73,.08-1.09-.74-.76-.76-1.55-.29-2.42,.02-.03,.03-.06,.03-.08,.04-.19,.16-.29,.35-.32,.35-.05,.69-.12,1.04-.19,.38-.07,.67-.27,.69-.68,.07-1.14,.06-2.29,.01-3.43Zm-6.42,1.87c0,2.23-1.8,4.01-4.04,4.01s-4.05-1.78-4.05-4.05,1.8-4.05,4.06-4.04c2.25,0,4.03,1.81,4.03,4.08Z"/>
      <g>
        <path d="M136.4,134.68c-.02-.4-.29-.63-.68-.69-.31-.04-.62-.09-.93-.09-.34-.01-.43-.22-.58-.48-.47-.8-.38-1.46,.24-2.14,.4-.43,.31-.75-.11-1.18-.69-.69-1.38-1.38-2.07-2.07-.45-.44-.7-.47-1.22-.11-.12,.08-.25,.14-.35,.24-.4,.39-.78,.35-1.32,.19-.79-.25-1.03-.7-1.07-1.46-.03-.73-.31-.94-1.06-.95-.73-.02-1.47-.01-2.2-.01-1.29,0-1.38,.06-1.58,1.33-.08,.51-.31,.76-.78,.99-.71,.36-1.25,.32-1.81-.22-.19-.19-.44-.36-.75-.35-.21,0-.38,.1-.52,.24-.77,.75-1.53,1.51-2.28,2.28-.3,.31-.31,.67-.06,1.04,.19,.26,.37,.53,.57,.79,.14,.19,.11,.35,.06,.58-.25,.98-.78,1.57-1.87,1.58-.44,0-.66,.36-.67,.78-.02,1.03-.02,2.06,0,3.09,.01,.49,.23,.71,.71,.82,.31,.07,.63,.14,.95,.18,.28,.03,.37,.2,.5,.43,.5,.86,.48,1.62-.26,2.36-.29,.29-.22,.69,.07,.99,.76,.77,1.51,1.53,2.28,2.28,.3,.29,.65,.31,1,.08,.17-.1,.34-.2,.49-.34,.39-.37,.79-.47,1.27-.14,.18,.12,.41,.17,.63,.23,.23,.07,.35,.19,.39,.44,.04,.35,.12,.69,.19,1.04,.1,.43,.38,.66,.81,.66,1.03,0,2.06,.02,3.09,0,.48-.01,.71-.24,.82-.71,.06-.31,.14-.63,.17-.95,.03-.28,.2-.38,.42-.51,.85-.53,1.58-.48,2.32,.23,.35,.35,.74,.28,1.09-.07,.74-.72,1.47-1.45,2.19-2.19,.35-.36,.43-.73,.08-1.09-.74-.76-.76-1.55-.29-2.42,.02-.03,.03-.06,.03-.08,.04-.19,.16-.29,.35-.32,.35-.05,.69-.12,1.04-.19,.38-.07,.67-.27,.69-.68,.07-1.14,.06-2.29,.01-3.43Zm-1.44,1.71c0,1.07,.01,1.08-1.06,1.26-.5,.08-.78,.33-.88,.82-.13,.64-.35,1.25-.63,1.84-.19,.37-.15,.7,.1,1.02,.2,.27,.39,.55,.55,.8,.02,.16-.06,.22-.13,.29-.36,.36-.72,.72-1.08,1.08-.14,.15-.28,.19-.43,.03-.76-.77-1.56-.79-2.45-.2-.32,.21-.73,.3-1.11,.41s-.59,.34-.66,.73c-.23,1.16-.24,1.16-1.4,1.16-.86,0-.89,0-1.01-.84-.1-.66-.39-1.03-1.07-1.15-.54-.09-1.05-.33-1.52-.63-.36-.23-.67-.19-1.02,.03-.31,.21-.59,.64-.95,.55-.3-.07-.54-.46-.8-.72-.66-.65-.68-.67-.12-1.39,.36-.48,.39-.9,.06-1.39-.3-.45-.47-.97-.58-1.49-.11-.5-.38-.78-.9-.86-1.06-.17-1.05-.19-1.05-1.28,0-.95,0-.97,.95-1.13,.57-.1,.91-.36,1.02-.96,.1-.57,.35-1.1,.65-1.59,.23-.38,.2-.71-.05-1.07-.2-.29-.61-.57-.54-.9,.06-.3,.44-.53,.69-.78,.69-.69,.7-.71,1.49-.12,.42,.31,.8,.33,1.25,.09,.58-.3,1.17-.56,1.8-.72,.34-.09,.53-.32,.6-.65,.06-.3,.13-.6,.17-.91,.04-.25,.17-.33,.4-.33,.45,.01,.91,.01,1.36,0,.23,0,.33,.11,.36,.32,.05,.27,.09,.55,.12,.83,.05,.4,.25,.66,.64,.75,.69,.17,1.35,.42,1.96,.79,.28,.16,.56,.15,.84-.03,.09-.06,.18-.13,.28-.19,.74-.52,.74-.53,1.39,.13,.27,.27,.7,.49,.74,.84,.03,.33-.36,.61-.57,.91-.22,.32-.26,.64-.06,.99,.35,.57,.58,1.19,.74,1.84,.13,.5,.33,.65,.87,.7q1.05,.09,1.04,1.12Z"/>
        <path d="M125.94,131.01c-3,0-5.51,2.5-5.52,5.5-.01,3.02,2.49,5.53,5.51,5.53s5.51-2.49,5.52-5.49c.01-3.02-2.5-5.54-5.51-5.54Zm0,9.56c-2.28,0-4.05-1.78-4.05-4.05s1.8-4.05,4.06-4.04c2.25,0,4.03,1.81,4.03,4.08s-1.8,4.01-4.04,4.01Z"/>
      </g>
    </g>
    <g>
      <polygon class="cls-19" points="92.78 144.03 92.78 159.58 75.35 159.58 75.35 138.66 86.56 138.66 92.78 144.03"/>
      <polyline class="cls-10" points="75.35 146.51 75.35 138.66 86.08 138.66"/>
      <polyline class="cls-10" points="92.78 144.04 92.78 159.58 75.35 159.58 75.35 152.11"/>
      <polygon class="cls-16" points="92.78 144.03 86.56 144.03 86.56 138.66 92.78 144.03"/>
      <g>
        <line class="cls-6" x1="64.43" y1="149.43" x2="74.31" y2="149.43"/>
        <polygon points="73.06 146.81 75.8 149.45 73.06 152.04 73.06 146.81"/>
      </g>
      <text class="cls-1" transform="translate(76.73 145.01)"><tspan x="0" y="0">0.2</tspan></text>
      <text class="cls-1" transform="translate(77.01 151.09)"><tspan x="0" y="0">0.895</tspan></text>
      <text class="cls-1" transform="translate(77.08 157.17)"><tspan x="0" y="0">0.401</tspan></text>
    </g>
    <g>
      <polygon class="cls-19" points="48.19 129.46 48.19 145.01 30.76 145.01 30.76 124.09 41.97 124.09 48.19 129.46"/>
      <polyline class="cls-10" points="30.77 131.95 30.77 124.09 41.49 124.09"/>
      <polyline class="cls-10" points="48.2 129.47 48.2 145.01 30.77 145.01 30.77 137.54"/>
      <polygon class="cls-16" points="41.97 124.08 41.97 129.46 48.2 129.46 41.97 124.08"/>
      <g>
        <line class="cls-6" x1="31.21" y1="134.86" x2="21.33" y2="134.86"/>
        <polygon points="22.58 132.24 19.85 134.89 22.58 137.47 22.58 132.24"/>
      </g>
      <text class="cls-1" transform="translate(32.15 130.44)"><tspan x="0" y="0">0.2</tspan></text>
      <text class="cls-1" transform="translate(32.43 136.52)"><tspan x="0" y="0">0.895</tspan></text>
      <text class="cls-1" transform="translate(32.5 142.6)"><tspan x="0" y="0">0.401</tspan></text>
    </g>
    <g>
      <path d="M27.11,95.49c-.01,.16-.08,.31-.2,.43-.15,.15-.34,.22-.53,.22s-.37-.07-.52-.21c-.16-.15-.31-.3-.47-.44-2.66-2.48-5.45-4.07-8.35-4.73h-.01c-1.11-.26-2.23-.37-3.36-.35-1.64,.02-3.19,.33-4.59,.79-3.63,1.17-6.32,3.36-7.35,4.29-.29,.26-.45,.42-.46,.43-.28,.29-.75,.3-1.05,.01-.13-.12-.2-.28-.21-.44-.03-.21,.03-.43,.19-.6,.23-.24,5.73-5.85,13.43-5.96,4.74-.07,9.16,1.93,13.27,5.94,.17,.17,.24,.4,.21,.62Z"/>
      <ellipse class="cls-20" cx="13.27" cy="95.41" rx="5.3" ry="5.59"/>
      <path d="M27.11,95.49c.03,.22-.04,.44-.21,.61-4.04,3.94-8.42,5.94-13.03,5.94h-.24c-7.7-.11-13.2-5.72-13.43-5.96-.16-.16-.22-.38-.19-.59,.01-.17,.08-.33,.21-.45,.3-.29,.77-.28,1.05,.01,.01,.01,.17,.17,.46,.44,1.05,.94,3.82,3.19,7.56,4.35,0,0,0,0,.01,0,1.34,.42,2.81,.7,4.37,.72,1.05,.01,2.09-.1,3.12-.32,.01,.01,.01,0,.01,0,2.98-.63,5.85-2.21,8.59-4.75,.16-.15,.31-.3,.47-.45,.3-.29,.76-.28,1.05,.01,.12,.12,.19,.28,.2,.44Z"/>
      <ellipse class="cls-5" cx="13.27" cy="95.41" rx="5.3" ry="5.59"/>
      <ellipse class="cls-18" cx="17.21" cy="93.37" rx="2.36" ry="1.2"/>
    </g>
    <g>
      <path class="cls-17" d="M55.22,19.35c0,5.48-4.44,9.92-9.91,9.92s-9.91-4.44-9.91-9.92,4.43-9.91,9.91-9.91,9.91,4.44,9.91,9.91Z"/>
      <line class="cls-13" x1="34.7" y1="19.35" x2="38.33" y2="19.35"/>
      <path class="cls-4" d="M55.22,19.35c0,5.48-4.44,9.92-9.91,9.92s-9.91-4.44-9.91-9.92,4.43-9.91,9.91-9.91,9.91,4.44,9.91,9.91Z"/>
      <polyline class="cls-14" points="48.99 15.57 44.51 19.1 49.84 25.17"/>
      <line class="cls-13" x1="51.84" y1="19.35" x2="55.47" y2="19.35"/>
      <line class="cls-13" x1="45.31" y1="25.97" x2="45.31" y2="29.6"/>
      <line class="cls-13" x1="45.31" y1="9.44" x2="45.31" y2="13.07"/>
    </g>
    <polygon class="cls-11" points="32.13 59.57 31.17 93.89 50.55 121.38 83.55 132.67 115.69 123.25 136.42 95.79 137.17 61.39 117.38 33.76 84.91 22.48 52.66 32.04 32.13 59.57"/>
    <path d="M114.94,77.14c0,.9-.45,1.52-1.55,1.92-2.19,.8-4.33,1.73-6.4,2.81-4.43,2.31-8.37,5.27-11.72,8.98-3.55,3.92-6.2,8.41-8.14,13.31-.34,.85-.63,1.72-.98,2.57-.34,.81-1,1.24-1.86,1.27-.88,.03-1.6-.37-1.98-1.17-.72-1.49-1.37-3.02-2.08-4.52-1.84-3.88-3.74-7.73-6.39-11.15-1.96-2.53-4.31-4.61-7.03-6.29-3.59-2.23-7.45-3.89-11.34-5.49-.39-.16-.8-.3-1.13-.58-1.21-1.02-.99-2.9,.46-3.56,.95-.43,1.95-.74,2.91-1.14,3.38-1.38,6.58-3.1,9.56-5.22,3.75-2.67,6.94-5.9,9.59-9.65,2.31-3.26,4.1-6.8,5.5-10.54,.55-1.47,1.99-1.96,3.26-1.16,.46,.29,.69,.74,.87,1.23,1.61,4.26,3.73,8.24,6.53,11.84,3.27,4.2,7.2,7.66,11.81,10.34,2.59,1.5,5.27,2.81,8.1,3.8,.32,.11,.63,.24,.92,.39,.74,.39,1.11,1.01,1.09,2.01Z"/>
    <g>
      <path class="cls-20" d="M17.43,50.11v16.7c0,.93-1.09,1.43-1.8,.84l-5.8-4.87H3.91c-.67,0-1.22-.55-1.22-1.22v-6.2c0-.67,.55-1.22,1.22-1.22h5.92l5.8-4.86c.71-.6,1.8-.1,1.8,.83Z"/>
      <path class="cls-5" d="M17.43,50.11v16.7c0,.93-1.09,1.43-1.8,.84l-5.8-4.87H3.91c-.67,0-1.22-.55-1.22-1.22v-6.2c0-.67,.55-1.22,1.22-1.22h5.92l5.8-4.86c.71-.6,1.8-.1,1.8,.83Z"/>
      <path class="cls-22" d="M20.22,61.38c-.11,0-.23-.03-.33-.09-.31-.18-.41-.58-.23-.89,.72-1.22,.71-2.63-.02-3.85-.19-.31-.09-.71,.22-.9,.31-.19,.71-.09,.9,.22,1,1.65,1.01,3.54,.03,5.19-.12,.21-.34,.32-.56,.32Z"/>
      <path class="cls-22" d="M22.31,63.44c-.11,0-.23-.03-.33-.09-.31-.18-.41-.58-.23-.89,1.5-2.54,1.48-5.45-.05-7.98-.19-.31-.09-.71,.22-.9,.31-.19,.71-.09,.9,.22,1.79,2.96,1.81,6.35,.06,9.32-.12,.21-.34,.32-.56,.32Z"/>
      <path class="cls-22" d="M24.76,65.21c-.11,0-.23-.03-.33-.09-.31-.18-.41-.58-.23-.89,2.16-3.67,2.14-7.86-.07-11.52-.19-.31-.09-.71,.22-.9,.31-.19,.71-.09,.9,.22,2.47,4.08,2.49,8.77,.08,12.86-.12,.21-.34,.32-.56,.32Z"/>
    </g>
    <polygon class="cls-12" points="37.83 61.54 36.97 92.12 54.23 116.61 83.63 126.66 112.26 118.27 130.73 93.81 131.4 63.17 113.76 38.55 84.84 28.51 56.11 37.02 37.83 61.54"/>
  </g>
</svg>