<?xml version="1.0" encoding="UTF-8"?>
<svg id="Layer_2" data-name="Layer 2" xmlns="http://www.w3.org/2000/svg" viewBox="0 0 623.35 444.49">
  <defs>
    <style>
      .cls-1 {
        letter-spacing: 0em;
      }

      .cls-2 {
        letter-spacing: 0em;
      }

      .cls-3 {
        letter-spacing: 0em;
      }

      .cls-4 {
        letter-spacing: 0em;
      }

      .cls-5 {
        letter-spacing: .02em;
      }

      .cls-6 {
        letter-spacing: 0em;
      }

      .cls-7 {
        letter-spacing: 0em;
      }

      .cls-8 {
        letter-spacing: 0em;
      }

      .cls-9 {
        letter-spacing: 0em;
      }

      .cls-10 {
        stroke: #a4a4a4;
        stroke-dasharray: 0 2;
      }

      .cls-10, .cls-11 {
        stroke-miterlimit: 10;
        stroke-width: .75px;
      }

      .cls-10, .cls-11, .cls-12, .cls-13 {
        fill: none;
      }

      .cls-11 {
        stroke: #606060;
      }

      .cls-14 {
        letter-spacing: -.04em;
      }

      .cls-15 {
        letter-spacing: 0em;
      }

      .cls-16 {
        letter-spacing: -.01em;
      }

      .cls-17 {
        letter-spacing: -.06em;
      }

      .cls-12 {
        stroke: #4b468e;
      }

      .cls-12, .cls-13 {
        stroke-linecap: round;
        stroke-linejoin: round;
        stroke-width: 4px;
      }

      .cls-13 {
        stroke: #d52525;
      }

      .cls-18 {
        letter-spacing: 0em;
      }

      .cls-19 {
        letter-spacing: 0em;
      }

      .cls-20 {
        letter-spacing: -.02em;
      }

      .cls-21 {
        letter-spacing: -.04em;
      }

      .cls-22 {
        font-family: MyriadPro-Semibold, 'Myriad Pro';
        font-size: 24px;
        font-weight: 600;
      }

      .cls-23 {
        letter-spacing: .01em;
      }

      .cls-24 {
        letter-spacing: 0em;
      }

      .cls-25 {
        fill: #606060;
        font-family: MyriadPro-Regular, 'Myriad Pro';
        font-size: 18px;
      }
    </style>
  </defs>
  <g id="Layer_1-2" data-name="Layer 1">
    <polygon class="cls-10" points="96.11 152.01 94.37 263.21 158.22 351.48 265.54 386.71 369.25 354.92 435.3 265.18 436.36 153.75 371.16 65.04 265.54 29.8 161.49 62.05 96.11 152.01"/>
    <polygon class="cls-10" points="129.7 163.22 128.31 252.4 179.51 323.18 265.37 351.44 348.74 325.94 401.71 253.97 402.56 164.62 350.28 93.47 265.58 65.21 182.13 91.07 129.7 163.22"/>
    <polygon class="cls-10" points="164.02 174.67 162.98 241.34 201.26 294.26 265.37 315.39 327.78 296.33 367.39 242.52 368.02 175.72 328.93 122.53 265.61 101.4 203.22 120.73 164.02 174.67"/>
    <text class="cls-22" transform="translate(207.76 20.09)"><tspan class="cls-24" x="0" y="0">K</tspan><tspan x="14.09" y="0">n</tspan><tspan class="cls-19" x="27.82" y="0">o</tspan><tspan x="41.16" y="0">wledge</tspan></text>
    <text class="cls-22" transform="translate(375.8 27.7)"><tspan class="cls-9" x="0" y="0">R</tspan><tspan x="13.73" y="0">eading</tspan><tspan x="-7.87" y="28.8" xml:space="preserve"> &amp;</tspan><tspan class="cls-14" x="12.58" y="28.8"> </tspan><tspan class="cls-20" x="16.68" y="28.8">W</tspan><tspan x="37.01" y="28.8">riting</tspan></text>
    <text class="cls-22" transform="translate(448.64 158.29)"><tspan class="cls-3" x="0" y="0">M</tspan><tspan class="cls-4" x="19.94" y="0">a</tspan><tspan x="31.99" y="0">th</tspan></text>
    <text class="cls-22" transform="translate(491.4 94.13)"><tspan x="0" y="0">GP</tspan><tspan class="cls-17" x="29.4" y="0">T</tspan><tspan x="40.66" y="0">-5 (2025)</tspan></text>
    <text class="cls-22" transform="translate(491.1 115.93)"><tspan x="0" y="0">GP</tspan><tspan class="cls-17" x="29.4" y="0">T</tspan><tspan x="40.66" y="0">-4 (2023)</tspan></text>
    <text class="cls-22" transform="translate(449.42 271.4)"><tspan class="cls-9" x="0" y="0">R</tspan><tspan x="13.73" y="0">easoning</tspan></text>
    <text class="cls-22" transform="translate(379.48 371.3)"><tspan class="cls-21" x="0" y="0">W</tspan><tspan class="cls-15" x="19.94" y="0">or</tspan><tspan class="cls-23" x="42.02" y="0">k</tspan><tspan x="54.55" y="0">ing</tspan><tspan class="cls-24" x=".43" y="28.8">M</tspan><tspan x="20.4" y="28.8">emo</tspan><tspan class="cls-5" x="66.67" y="28.8">r</tspan><tspan x="75.74" y="28.8">y</tspan></text>
    <text class="cls-22" transform="translate(221.99 409.69)"><tspan class="cls-24" x="0" y="0">M</tspan><tspan x="19.97" y="0">emo</tspan><tspan class="cls-5" x="66.24" y="0">r</tspan><tspan x="75.31" y="0">y</tspan><tspan class="cls-18" x="3.24" y="28.8">S</tspan><tspan class="cls-8" x="15.6" y="28.8">t</tspan><tspan x="23.88" y="28.8">o</tspan><tspan class="cls-6" x="37.42" y="28.8">r</tspan><tspan class="cls-15" x="45.74" y="28.8">age</tspan></text>
    <text class="cls-22" transform="translate(75.94 371.52)"><tspan class="cls-24" x="0" y="0">M</tspan><tspan x="19.97" y="0">emo</tspan><tspan class="cls-5" x="66.24" y="0">r</tspan><tspan x="75.31" y="0">y</tspan><tspan class="cls-9" x="-2.32" y="28.8">R</tspan><tspan x="11.41" y="28.8">etri</tspan><tspan class="cls-1" x="46.91" y="28.8">e</tspan><tspan class="cls-8" x="59.22" y="28.8">v</tspan><tspan x="71.27" y="28.8">al</tspan></text>
    <text class="cls-22" transform="translate(25.93 271.4)"><tspan class="cls-20" x="0" y="0">V</tspan><tspan x="13.9" y="0">isual</tspan></text>
    <text class="cls-22" transform="translate(0 154.71)"><tspan class="cls-16" x="0" y="0">A</tspan><tspan class="cls-7" x="14.93" y="0">udi</tspan><tspan class="cls-2" x="48.67" y="0">t</tspan><tspan x="56.95" y="0">o</tspan><tspan class="cls-5" x="70.49" y="0">r</tspan><tspan x="79.56" y="0">y</tspan></text>
    <text class="cls-22" transform="translate(102.58 52.48)"><tspan x="0" y="0">Speed</tspan></text>
    <g>
      <line class="cls-11" x1="265.54" y1="29.8" x2="265.54" y2="386.71"/>
      <line class="cls-11" x1="158.22" y1="351.48" x2="371.16" y2="65.04"/>
      <line class="cls-11" x1="161.49" y1="62.05" x2="369.25" y2="354.92"/>
      <line class="cls-11" x1="96.11" y1="152.01" x2="435.3" y2="265.18"/>
      <line class="cls-11" x1="94.37" y1="263.21" x2="436.36" y2="153.75"/>
    </g>
    <polygon class="cls-10" points="198.63 186.22 197.94 230.2 223.19 265.11 265.64 279.05 306.66 266.47 332.79 230.98 333.21 186.91 307.42 151.82 265.64 137.88 224.49 150.63 198.63 186.22"/>
    <polygon class="cls-10" points="232.71 197.59 232.38 219.22 244.8 236.39 265.34 243.25 285.85 237.06 298.7 219.6 298.91 197.93 286.22 180.67 265.68 173.81 245.43 180.09 232.71 197.59"/>
    <polyline class="cls-12" points="223.19 265.11 264.69 208.26 236.53 167.83 265.58 65.21 328.93 122.53 333.21 186.91 264.69 208.26 285.85 237.06"/>
    <polygon class="cls-13" points="265.45 48.6 371.16 65.04 436.36 153.75 381.8 247.33 315.93 279.76 264.69 208.26 223.19 265.11 197.94 230.2 164.02 174.67 236.53 167.83 265.45 48.6"/>
    <text class="cls-25" transform="translate(268.26 238.41)"><tspan x="0" y="0">2</tspan></text>
    <text class="cls-25" transform="translate(268.26 273.55)"><tspan x="0" y="0">4</tspan></text>
    <text class="cls-25" transform="translate(268.26 310.58)"><tspan x="0" y="0">6</tspan></text>
    <text class="cls-25" transform="translate(268.26 346.54)"><tspan x="0" y="0">8</tspan></text>
    <text class="cls-25" transform="translate(268.26 378.56)"><tspan x="0" y="0">10</tspan></text>
    <line class="cls-13" x1="461.06" y1="86.87" x2="484.28" y2="86.87"/>
    <line class="cls-12" x1="462.06" y1="106.76" x2="485.28" y2="106.76"/>
  </g>
</svg>