<?xml version="1.0" encoding="UTF-8"?>
<svg id="Layer_2" data-name="Layer 2" xmlns="http://www.w3.org/2000/svg" viewBox="0 0 21.29 19.01">
  <defs>
    <style>
      .cls-1 {
        fill: #fff;
      }

      .cls-2 {
        fill: #070406;
      }

      .cls-3 {
        fill: #a1bfe2;
      }
    </style>
  </defs>
  <g id="Layer_1-2" data-name="Layer 1">
    <g>
      <g>
        <ellipse class="cls-1" cx="4.2" cy="15.48" rx="3.35" ry="2.68"/>
        <path class="cls-2" d="M4.2,19.01c-2.31,0-4.2-1.58-4.2-3.53s1.88-3.53,4.2-3.53,4.2,1.58,4.2,3.53-1.88,3.53-4.2,3.53Zm0-5.36c-1.36,0-2.5,.84-2.5,1.83s1.15,1.84,2.5,1.84,2.5-.84,2.5-1.84-1.14-1.83-2.5-1.83Z"/>
      </g>
      <g>
        <ellipse class="cls-1" cx="17.09" cy="15.48" rx="3.35" ry="2.68"/>
        <path class="cls-2" d="M17.09,19.01c-2.31,0-4.2-1.58-4.2-3.53s1.88-3.53,4.2-3.53,4.2,1.58,4.2,3.53-1.88,3.53-4.2,3.53Zm0-5.36c-1.36,0-2.5,.84-2.5,1.83s1.15,1.84,2.5,1.84,2.5-.84,2.5-1.84-1.15-1.83-2.5-1.83Z"/>
      </g>
      <g>
        <line class="cls-3" x1="7.54" y1="15.48" x2="7.54" y2="2.77"/>
        <path class="cls-2" d="M7.54,16.33c-.47,0-.85-.38-.85-.85V2.77c0-.47,.38-.85,.85-.85s.85,.38,.85,.85V15.48c0,.47-.38,.85-.85,.85Z"/>
      </g>
      <g>
        <line class="cls-3" x1="20.44" y1="15.48" x2="20.44" y2="2.77"/>
        <path class="cls-2" d="M20.44,16.33c-.47,0-.85-.38-.85-.85V2.77c0-.47,.38-.85,.85-.85s.85,.38,.85,.85V15.48c0,.47-.38,.85-.85,.85Z"/>
      </g>
      <g>
        <rect class="cls-1" x="7.54" y=".85" width="12.89" height="4.26"/>
        <path class="cls-2" d="M20.44,5.96H7.54c-.47,0-.85-.38-.85-.85V.85c0-.47,.38-.85,.85-.85h12.89c.47,0,.85,.38,.85,.85V5.11c0,.47-.38,.85-.85,.85Zm-12.05-1.7h11.2V1.7H8.39v2.57Z"/>
      </g>
    </g>
  </g>
</svg>